<svg version="1.1" id="Layer_1" xmlns="http://www.w3.org/2000/svg" xmlns:xlink="http://www.w3.org/1999/xlink" x="0px" y="0px" width="223.6px" height="71.4px" viewBox="0 0 223.6 71.4" enable-background="new 0 0 223.6 71.4" xml:space="preserve">

<g class="brand-name">
	<path fill="#FFFFFF" d="M72,32.9c-2.3-2.4-3.4-5.6-3.4-9.4c0-1.9,0.3-3.6,0.9-5.3c0.6-1.6,1.5-3,2.6-4.2c1.1-1.1,2.5-2.1,4.2-2.7
		c1.7-0.7,3.6-1,5.8-1h27.8v8.7H86.5c-0.7,0-1.5,0.1-2.2,0.2c-0.7,0.1-1.3,0.3-1.9,0.6c-0.6,0.3-1,0.8-1.4,1.3
		c-0.3,0.6-0.5,1.3-0.5,2.3c0,0.9,0.2,1.7,0.5,2.3c0.3,0.6,0.8,1,1.4,1.3c0.6,0.3,1.2,0.5,1.9,0.6c0.7,0.1,1.4,0.2,2.2,0.2h12.2
		c2.2,0,4.1,0.3,5.8,1c1.7,0.7,3.1,1.6,4.2,2.7c1.1,1.2,2,2.5,2.6,4.2c0.6,1.6,0.9,3.4,0.9,5.3c0,3.9-1.1,7-3.4,9.4
		c-2.3,2.4-5.6,3.6-10,3.6H68.5v-8.7h25.6c0.7,0,1.5-0.1,2.2-0.2c0.7-0.1,1.3-0.3,1.9-0.6c0.6-0.3,1-0.8,1.4-1.3
		c0.3-0.6,0.5-1.3,0.5-2.3c0-0.9-0.2-1.7-0.5-2.3c-0.3-0.6-0.8-1-1.4-1.3c-0.6-0.3-1.2-0.5-1.9-0.6c-0.7-0.1-1.4-0.2-2.2-0.2H82
		C77.6,36.5,74.3,35.3,72,32.9z"></path>
	<path fill="#FFFFFF" d="M154.3,19.6h-16.1c-3.3,0-5.9,1.1-7.8,3.4c-1.9,2.2-2.9,5.3-2.9,9.3c0,3.9,1,7,2.9,9.3
		c1.9,2.2,4.5,3.4,7.8,3.4h16.1V54h-17.9c-6.6,0-11.7-1.8-15.4-5.5c-3.7-3.7-5.5-9.1-5.5-16.3c0-7.2,1.8-12.6,5.5-16.3
		c3.7-3.7,8.8-5.5,15.4-5.5h17.9V19.6z"></path>
	<path fill="#FFFFFF" d="M171.4,19.9V54h-11.3V23.8L171.4,19.9z M160.1,21V10.4h11.3v6.8L160.1,21z"></path>
	<path fill="#FFFFFF" d="M192.4,10.6h12.7L223.5,54H212l-4.2-10.5h-17.8L185.7,54h-11.5L192.4,10.6z M192.6,36.7H205l-6.2-15.4
		L192.6,36.7z"></path>
</g>
<g class="brand-shape">
	<path fill-rule="evenodd" clip-rule="evenodd" fill="#FFFFFF" d="M39.3,69.6c2.2,0.8,5,1.2,8.1,1.5c-0.6,0.1,0,0.1-1.8,0.2
		c-1.8,0.2-7.7-0.5-11.3-1.5C35.8,69.8,37.9,69.8,39.3,69.6L39.3,69.6z M52,36.1l3.5,9.6c-2.4,0.6-4.8,1.2-6.9,1.9
		c-2-2.9-4-5.8-6-8.7C43.8,38.3,48.5,36.7,52,36.1L52,36.1z M40.7,39.6c2,2.8,4.2,5.7,6.2,8.6C44.7,49,42.4,50,40.6,51
		c-2.6-2.4-5.2-4.7-7.7-7.1C35.3,42.2,37.9,40.7,40.7,39.6L40.7,39.6z M31.7,44.7c2.6,2.3,5.2,4.6,7.8,6.9c-1.6,0.9-3,2-4.2,3
		c-2.9-1.8-5.7-3.6-8.5-5.5C28.2,47.6,29.8,46.1,31.7,44.7L31.7,44.7z M25.9,50.2c2.8,1.7,5.7,3.4,8.6,5.1c-1,1-1.7,2-2.2,3.1
		c-3-1.2-6-2.4-8.9-3.7C24,53.2,24.8,51.6,25.9,50.2L25.9,50.2z M23.1,55.6c2.9,1.2,5.9,2.4,8.9,3.5c-0.1,0.4-0.3,0.7-0.4,1.1
		c-0.1,0.6-0.2,1.1-0.2,1.7c-3-0.8-5.9-1.6-8.9-2.5C22.5,58.1,22.7,56.8,23.1,55.6L23.1,55.6z M35.1,67.6c0.9,0.6,2,1.2,3.2,1.7
		l-0.9,0c-1.4,0.1-2.9,0.1-4.4,0c-1.5-0.5-3.5-1.3-4.5-2C30.6,67.4,33.3,67.6,35.1,67.6L35.1,67.6z"></path>
	<path fill-rule="evenodd" clip-rule="evenodd" fill="#FFFFFF" d="M12.1,57.3c2.9,0.9,5.7,1.7,8.7,2.6c0.2,1.1,0.8,2.8,1.9,3.6l0,0
		c-3.2-0.6-8.3-2-8.3-2C12.8,59.5,12.1,57.3,12.1,57.3z M46.3,20.5l4.8,13.1c-3.6,0.7-6.7,1.8-10.1,3.1c-2.5-3.7-5.1-7.5-7.7-11.3
		C37.4,23.2,41.8,21.5,46.3,20.5L46.3,20.5z M31.2,26.5c2.6,3.6,5.2,7.3,7.8,10.9c-2.9,1.3-5.6,2.8-8.1,4.6c-3-2.9-6-5.7-9.1-8.6
		C24.6,30.8,27.8,28.5,31.2,26.5L31.2,26.5z M20.5,34.8c3.1,2.8,6.1,5.5,9.2,8.2c-1.9,1.5-3.6,3.1-5,4.8c-3.2-2.1-6.4-4.3-9.5-6.5
		C16.6,39,18.4,36.8,20.5,34.8L20.5,34.8z M14.3,42.9c3.2,2,6.3,4.1,9.6,6.1c-1.1,1.6-2,3.2-2.6,4.8c-3.2-1.5-6.3-3.1-9.5-4.8
		C12.3,46.9,13.1,44.9,14.3,42.9L14.3,42.9z M11.5,50.4c3.1,1.5,6.3,2.9,9.5,4.3c-0.3,1.3-0.5,2.5-0.4,3.8l0,0.2
		c-3.1-1-5.8-2-8.8-3.2C11.5,53.9,11.2,52.7,11.5,50.4L11.5,50.4z"></path>
	<path fill-rule="evenodd" clip-rule="evenodd" fill="#FFFFFF" d="M0.6,51.3c-0.3-1.8-0.6-4.7-0.6-6.5c3.3,1.7,6.6,3.4,9.9,5
		c-0.1,1.8-0.2,3.4,0.2,5.1L0.6,51.3z M22.1,8.2c5.3-3.7,11-6.5,16.8-8.2l6.4,17.5c-4.7,1.2-9.3,3-13.5,5.4
		C28.5,18,25.3,13.1,22.1,8.2L22.1,8.2z M8.9,20.7c2.9-3.9,6.7-7.6,10.6-10.7c3.6,4.8,6.7,9.5,10,14.1c-3.5,2.2-6.8,4.7-9.6,7.4
		C16.3,28,12.6,24.4,8.9,20.7L8.9,20.7z M2.5,32.3c1.3-3.3,2.9-6.5,5-9.5c3.7,3.4,7.4,6.8,11.1,10.2c-2.1,2.2-3.9,4.6-5.3,7
		C9.7,37.4,6.1,34.9,2.5,32.3L2.5,32.3z M0.2,42.3l0-0.5c0.3-2.5,0.8-4.9,1.5-7.3c3.5,2.4,7.1,4.7,10.6,7.1
		c-1.1,2.2-1.8,4.3-2.2,6.5C6.8,46.3,3.5,44.4,0.2,42.3L0.2,42.3z"></path>
	<path fill-rule="evenodd" clip-rule="evenodd" fill="#FFFFFF" d="M32.7,65.3c0.4,0.6,1,1.2,1.7,1.7c-2,0-4.3-0.2-6.6-0.4
		c-1.3-0.9-2-1.5-2.4-1.8C27.8,65,30.3,65.3,32.7,65.3L32.7,65.3z"></path>
	<path fill-rule="evenodd" clip-rule="evenodd" fill="#FFFFFF" d="M22.6,60.4c0,0,4.9,1.4,8.9,2.4c0,0,0.1,0.7,0.8,1.9
		c0,0-6.3-0.8-7.6-1C24.7,63.8,23.4,63,22.6,60.4z"></path>
</g>
<g class="brand-baseline">
	<path fill="#FFFFFF" d="M68.4,71.3l3.3-8.6h1.2l3.5,8.6H75l-1-2.6h-3.6l-0.9,2.6H68.4z M70.8,67.7h2.9l-0.9-2.4
		c-0.3-0.7-0.5-1.3-0.6-1.8c-0.1,0.6-0.3,1.1-0.5,1.6L70.8,67.7z"></path>
	<path fill="#FFFFFF" d="M79.8,71.3v-8.6H81l4.5,6.8v-6.8h1.1v8.6h-1.2l-4.5-6.8v6.8H79.8z"></path>
	<path fill="#FFFFFF" d="M88.4,71.3v-8.6h6.1v1h-5v2.6h4.7v1h-4.7v2.9h5.2v1H88.4z"></path>
	<path fill="#FFFFFF" d="M96.3,71.3v-8.6H98l2,6.1c0.2,0.6,0.3,1,0.4,1.3c0.1-0.3,0.2-0.8,0.5-1.4l2-6h1.5v8.6h-1.1v-7.2l-2.5,7.2
		h-1l-2.5-7.4v7.4H96.3z"></path>
	<path fill="#FFFFFF" d="M106.2,71.3v-8.6h6.1v1h-5v2.6h4.7v1h-4.7v2.9h5.2v1H106.2z"></path>
	<path fill="#FFFFFF" d="M116.3,71.3v-7.6h-2.8v-1h6.7v1h-2.8v7.6H116.3z"></path>
	<path fill="#FFFFFF" d="M121,68.5l1.1-0.1c0.1,0.4,0.2,0.8,0.4,1.1c0.2,0.3,0.5,0.5,0.9,0.7c0.4,0.2,0.8,0.3,1.3,0.3
		c0.4,0,0.8-0.1,1.1-0.2c0.3-0.1,0.6-0.3,0.7-0.5c0.2-0.2,0.2-0.5,0.2-0.7c0-0.3-0.1-0.5-0.2-0.7c-0.2-0.2-0.4-0.4-0.8-0.5
		c-0.2-0.1-0.7-0.2-1.5-0.4c-0.8-0.2-1.3-0.4-1.6-0.5c-0.4-0.2-0.7-0.5-0.9-0.8c-0.2-0.3-0.3-0.7-0.3-1.1c0-0.4,0.1-0.8,0.4-1.2
		c0.2-0.4,0.6-0.7,1.1-0.9c0.5-0.2,1-0.3,1.6-0.3c0.6,0,1.2,0.1,1.7,0.3c0.5,0.2,0.9,0.5,1.1,0.9c0.3,0.4,0.4,0.9,0.4,1.4l-1.1,0.1
		c-0.1-0.5-0.3-1-0.6-1.2c-0.3-0.3-0.8-0.4-1.5-0.4c-0.7,0-1.2,0.1-1.5,0.4c-0.3,0.3-0.5,0.6-0.5,0.9c0,0.3,0.1,0.6,0.3,0.8
		c0.2,0.2,0.8,0.4,1.7,0.6c0.9,0.2,1.5,0.4,1.9,0.6c0.5,0.2,0.9,0.5,1.1,0.9c0.2,0.4,0.4,0.8,0.4,1.2c0,0.5-0.1,0.9-0.4,1.3
		c-0.3,0.4-0.6,0.7-1.1,0.9c-0.5,0.2-1,0.3-1.6,0.3c-0.8,0-1.4-0.1-1.9-0.3c-0.5-0.2-0.9-0.6-1.2-1C121.1,69.6,121,69.1,121,68.5z"></path>
	<path fill="#FFFFFF" d="M135.3,68.3l1.1,0.3c-0.2,0.9-0.7,1.7-1.3,2.1c-0.6,0.5-1.4,0.7-2.2,0.7c-0.9,0-1.7-0.2-2.2-0.6
		c-0.6-0.4-1-0.9-1.3-1.6c-0.3-0.7-0.4-1.5-0.4-2.3c0-0.9,0.2-1.7,0.5-2.4c0.3-0.7,0.8-1.2,1.4-1.5c0.6-0.3,1.3-0.5,2.1-0.5
		c0.8,0,1.6,0.2,2.1,0.7c0.6,0.4,1,1.1,1.2,1.9l-1.1,0.3c-0.2-0.6-0.5-1.1-0.9-1.4c-0.4-0.3-0.8-0.4-1.4-0.4c-0.7,0-1.2,0.2-1.6,0.5
		c-0.4,0.3-0.7,0.7-0.9,1.3c-0.2,0.5-0.3,1.1-0.3,1.7c0,0.7,0.1,1.4,0.3,1.9c0.2,0.5,0.5,1,1,1.2c0.4,0.3,0.9,0.4,1.4,0.4
		c0.6,0,1.2-0.2,1.6-0.6C134.9,69.5,135.2,69,135.3,68.3z"></path>
	<path fill="#FFFFFF" d="M137.9,71.3v-8.6h1.1v3.5h4.4v-3.5h1.1v8.6h-1.1v-4.1H139v4.1H137.9z"></path>
	<path fill="#FFFFFF" d="M146.4,71.3v-8.6h6.1v1h-5v2.6h4.7v1h-4.7v2.9h5.2v1H146.4z"></path>
	<path fill="#FFFFFF" d="M154.3,71.3v-8.6h1.1v4.3l4.2-4.3h1.5l-3.6,3.5l3.7,5.1h-1.5l-3-4.4l-1.4,1.4v3H154.3z"></path>
	<path fill="#FFFFFF" d="M171.6,68.3l1.1,0.3c-0.2,0.9-0.7,1.7-1.3,2.1c-0.6,0.5-1.4,0.7-2.2,0.7c-0.9,0-1.7-0.2-2.2-0.6
		c-0.6-0.4-1-0.9-1.3-1.6c-0.3-0.7-0.4-1.5-0.4-2.3c0-0.9,0.2-1.7,0.5-2.4c0.3-0.7,0.8-1.2,1.4-1.5c0.6-0.3,1.3-0.5,2.1-0.5
		c0.8,0,1.6,0.2,2.1,0.7c0.6,0.4,1,1.1,1.2,1.9l-1.1,0.3c-0.2-0.6-0.5-1.1-0.9-1.4c-0.4-0.3-0.8-0.4-1.4-0.4c-0.7,0-1.2,0.2-1.6,0.5
		c-0.4,0.3-0.7,0.7-0.9,1.3c-0.2,0.5-0.3,1.1-0.3,1.7c0,0.7,0.1,1.4,0.3,1.9c0.2,0.5,0.5,1,1,1.2c0.4,0.3,0.9,0.4,1.4,0.4
		c0.6,0,1.2-0.2,1.6-0.6C171.1,69.5,171.4,69,171.6,68.3z"></path>
	<path fill="#FFFFFF" d="M173.7,67.1c0-1.4,0.4-2.6,1.1-3.4c0.8-0.8,1.7-1.2,2.9-1.2c0.8,0,1.5,0.2,2.1,0.6c0.6,0.4,1.1,0.9,1.4,1.6
		c0.3,0.7,0.5,1.5,0.5,2.3c0,0.9-0.2,1.7-0.5,2.4c-0.3,0.7-0.8,1.2-1.5,1.6c-0.6,0.4-1.3,0.5-2.1,0.5c-0.8,0-1.5-0.2-2.1-0.6
		c-0.6-0.4-1.1-0.9-1.4-1.6C173.9,68.5,173.7,67.8,173.7,67.1z M174.9,67.1c0,1,0.3,1.9,0.8,2.5c0.6,0.6,1.2,0.9,2.1,0.9
		c0.8,0,1.5-0.3,2.1-0.9c0.5-0.6,0.8-1.5,0.8-2.6c0-0.7-0.1-1.3-0.4-1.8c-0.2-0.5-0.6-0.9-1-1.2c-0.4-0.3-1-0.4-1.5-0.4
		c-0.8,0-1.5,0.3-2.1,0.8C175.2,64.9,174.9,65.8,174.9,67.1z"></path>
	<path fill="#FFFFFF" d="M183.3,71.3v-8.6h1.7l2,6.1c0.2,0.6,0.3,1,0.4,1.3c0.1-0.3,0.2-0.8,0.5-1.4l2-6h1.5v8.6h-1.1v-7.2l-2.5,7.2
		h-1l-2.5-7.4v7.4H183.3z"></path>
	<path fill="#FFFFFF" d="M193.2,71.3v-8.6h3.2c0.6,0,1,0,1.3,0.1c0.4,0.1,0.8,0.2,1,0.4c0.3,0.2,0.5,0.5,0.7,0.8
		c0.2,0.4,0.3,0.8,0.3,1.2c0,0.7-0.2,1.4-0.7,1.9c-0.5,0.5-1.3,0.8-2.5,0.8h-2.2v3.5H193.2z M194.3,66.7h2.2c0.7,0,1.2-0.1,1.5-0.4
		c0.3-0.3,0.5-0.7,0.5-1.2c0-0.4-0.1-0.7-0.3-0.9c-0.2-0.3-0.4-0.4-0.7-0.5c-0.2-0.1-0.5-0.1-1-0.1h-2.2V66.7z"></path>
	<path fill="#FFFFFF" d="M199.3,71.3l3.3-8.6h1.2l3.5,8.6H206l-1-2.6h-3.6l-0.9,2.6H199.3z M201.7,67.7h2.9l-0.9-2.4
		c-0.3-0.7-0.5-1.3-0.6-1.8c-0.1,0.6-0.3,1.1-0.5,1.6L201.7,67.7z"></path>
	<path fill="#FFFFFF" d="M208.1,71.3v-8.6h1.2l4.5,6.8v-6.8h1.1v8.6h-1.2l-4.5-6.8v6.8H208.1z"></path>
	<path fill="#FFFFFF" d="M219.1,71.3v-3.7l-3.3-5h1.4l1.7,2.6c0.3,0.5,0.6,1,0.9,1.5c0.3-0.5,0.6-1,0.9-1.5l1.6-2.5h1.3l-3.4,5v3.7
		H219.1z"></path>
</g>
</svg>