<?xml version="1.0" encoding="UTF-8"?>
<!DOCTYPE svg PUBLIC "-//W3C//DTD SVG 1.1//EN" "http://www.w3.org/Graphics/SVG/1.1/DTD/svg11.dtd">
<!-- Creator: CorelDRAW X7 -->
<svg xmlns="http://www.w3.org/2000/svg" xml:space="preserve" width="1.6in" height="0.51in" version="1.1" style="shape-rendering:geometricPrecision; text-rendering:geometricPrecision; image-rendering:optimizeQuality; fill-rule:evenodd; clip-rule:evenodd"
viewBox="0 0 1600 510"
 xmlns:xlink="http://www.w3.org/1999/xlink">
 <defs>
  <style type="text/css">
   <![CDATA[
    .str0 {stroke:#DB373A;stroke-width:6.24803}
    .fil0 {fill:#DB373A}
    .fil1 {fill:#5E6E77}
   ]]>
  </style>
 </defs>
 <g id="Layer_x0020_1">
  <metadata id="CorelCorpID_0Corel-Layer"/>
  <path class="fil0" d="M305 379c-15,17 -33,25 -59,25 -29,0 -52,-9 -66,-25l0 -136c14,-16 35,-25 62,-25 28,0 49,9 63,25l0 136zm446 -371c-254,12 -468,99 -523,194 -34,4 -66,20 -66,47l0 246c0,4 4,8 9,8 5,0 9,-4 9,-8l0 -92c26,15 53,17 66,17 38,0 76,-16 76,-47l0 -13c27,-240 195,-319 543,-348 21,-1 41,-1 61,-1 -35,-3 -72,-5 -110,-5 -22,0 -43,1 -65,2z"/>
  <path class="fil0" d="M708 127c13,-13 40,-26 78,-39 90,-34 227,-63 380,-76 32,-2 63,-4 94,-5 -57,-1 -119,1 -183,5 -273,17 -491,71 -488,121 1,18 32,33 84,44 -1,-17 12,-34 35,-50z"/>
  <path class="fil0 str0" d="M63 419c-17,0 -35,0 -50,-5l0 -13c12,4 28,7 50,7 26,0 46,-9 61,-26l0 -39c-8,-12 -24,-14 -38,-16l-32 -6c-18,-3 -47,-6 -47,-29l0 -32c0,-28 39,-42 73,-42 16,0 35,0 50,5l0 13c-12,-4 -29,-7 -50,-7 -26,0 -47,9 -61,26l0 38c7,13 24,15 37,17l33 6c17,2 46,5 46,29l0 32c0,28 -38,42 -72,42z"/>
  <path class="fil1" d="M632 398l0 -106c0,-58 -70,-76 -111,-76 -18,0 -41,2 -61,9l0 -83c0,-17 -14,-30 -30,-30 -17,0 -31,13 -31,30l0 256c0,58 76,76 117,76 41,0 116,-18 116,-76zm-60 -104l0 101c-12,11 -30,19 -56,19 -26,0 -45,-8 -56,-19l0 -100c12,-12 34,-20 61,-20 25,0 39,8 51,19z"/>
  <path class="fil1" d="M908 375l0 -83c0,-59 -75,-76 -116,-76 -41,0 -117,17 -117,76l0 106c0,58 76,76 117,76 36,0 59,-5 86,-14 34,-13 19,-69 -20,-57 -14,6 -32,11 -66,11 -26,0 -45,-8 -57,-19l0 -20 173 0zm-60 -80l0 20 -113 0 0 -20c12,-12 31,-20 57,-20 26,0 44,8 56,20z"/>
  <path class="fil1" d="M1174 458l0 -166c0,-59 -75,-76 -116,-76 -23,0 -64,3 -93,16l0 61c29,-9 63,-18 93,-18 26,0 45,8 57,20l0 8 -77 18c-34,8 -96,16 -96,63l0 24c0,52 78,66 128,66 34,0 71,-8 104,-16zm-59 -49c-17,3 -34,5 -45,5 -38,0 -57,-3 -68,-12l0 -11c16,-6 33,-9 49,-12l64 -15 0 45z"/>
  <path class="fil1" d="M1534 470l0 -175c-12,-12 -24,-20 -48,-20 -25,0 -37,8 -49,20l0 175 -60 0 0 -175c-11,-12 -24,-20 -48,-20 -26,0 -38,8 -49,20l0 175 -60 0 0 -173c0,-54 63,-81 109,-81 27,0 56,8 78,25 21,-17 51,-25 79,-25 45,0 108,27 108,81l0 173 -60 0z"/>
 </g>
</svg>
