<?xml version="1.0" encoding="UTF-8"?>
<!DOCTYPE svg PUBLIC "-//W3C//DTD SVG 1.1//EN" "http://www.w3.org/Graphics/SVG/1.1/DTD/svg11.dtd">
<!-- Creator: CorelDRAW X7 -->
<svg xmlns="http://www.w3.org/2000/svg" xml:space="preserve" width="1.73in" height="0.52in" version="1.1" style="shape-rendering:geometricPrecision; text-rendering:geometricPrecision; image-rendering:optimizeQuality; fill-rule:evenodd; clip-rule:evenodd"
viewBox="0 0 1730 520"
 xmlns:xlink="http://www.w3.org/1999/xlink">
 <defs>
  <style type="text/css">
   <![CDATA[
    .str0 {stroke:#DF7239;stroke-width:6.24803}
    .fil2 {fill:#FAA954}
    .fil1 {fill:#DF7239}
    .fil0 {fill:#5C6C75}
   ]]>
  </style>
 </defs>
 <g id="Layer_x0020_1">
  <metadata id="CorelCorpID_0Corel-Layer"/>
  <path class="fil0" d="M548 285l-56 0 0 192 -60 0 0 -192 -30 0 0 -59 30 0 0 -27c0,-59 75,-77 116,-77 17,0 30,13 30,30 0,16 -13,30 -30,30 -26,0 -44,8 -56,19l0 25 56 0c17,0 30,12 30,29 0,17 -13,30 -30,30z"/>
  <path class="fil0" d="M716 282c-26,0 -43,6 -57,15l0 180 -60 0 0 -185c0,-56 75,-70 117,-70 112,0 78,80 37,66 -11,-4 -23,-6 -37,-6z"/>
  <path class="fil0" d="M1024 464l0 -166c0,-58 -75,-76 -116,-76 -23,0 -64,4 -93,16l0 62c29,-9 63,-18 93,-18 26,0 45,8 56,19l0 8 -76 18c-34,8 -96,16 -96,64l0 23c0,53 78,66 128,66 34,0 71,-7 104,-16zm-60 -49c-16,4 -33,6 -44,6 -38,0 -57,-3 -68,-12l0 -12c16,-5 33,-8 49,-12l63 -15 0 45z"/>
  <path class="fil0" d="M1384 477l0 -176c-12,-12 -24,-19 -48,-19 -26,0 -37,7 -49,19l0 176 -60 0 0 -176c-11,-12 -24,-19 -49,-19 -25,0 -37,7 -48,19l0 176 -60 0 0 -174c0,-54 63,-81 108,-81 28,0 57,9 79,25 21,-16 51,-25 79,-25 45,0 108,27 108,81l0 174 -60 0z"/>
  <path class="fil0" d="M1718 381l0 -83c0,-58 -74,-76 -116,-76 -41,0 -116,18 -116,76l0 106c0,59 75,76 116,76 37,0 59,-4 86,-14 35,-12 19,-69 -20,-56 -13,5 -32,11 -66,11 -26,0 -44,-8 -56,-20l0 -20 172 0zm-59 -80l0 20 -113 0 0 -20c12,-11 30,-19 56,-19 26,0 45,8 57,19z"/>
  <path class="fil1" d="M307 385c-15,17 -33,25 -59,25 -29,0 -53,-9 -67,-25l0 -135c15,-17 35,-25 63,-25 28,0 48,8 63,25l0 135zm445 -371c-253,12 -467,99 -523,195 -34,3 -65,19 -65,46l0 246c0,4 4,8 8,8 5,0 9,-3 9,-8l0 -92c27,15 53,18 67,18 38,0 76,-17 76,-47l0 -13c26,-241 195,-320 543,-348 21,-2 41,-2 61,-2 -36,-3 -73,-5 -111,-4 -21,0 -43,0 -65,1z"/>
  <path class="fil1" d="M710 133c13,-13 40,-26 78,-38 90,-35 226,-63 380,-76 32,-3 63,-5 93,-6 -57,0 -118,1 -183,5 -272,18 -491,72 -488,121 1,18 32,33 85,44 -1,-17 11,-33 35,-50z"/>
  <path class="fil2" d="M64 426c-16,0 -35,-1 -50,-6l0 -13c13,4 29,7 50,7 27,0 47,-9 62,-25l0 -39c-8,-13 -25,-14 -38,-17l-33 -5c-17,-3 -46,-6 -46,-30l0 -32c0,-27 38,-42 73,-42 16,0 35,1 49,6l0 12c-12,-3 -28,-6 -49,-6 -27,0 -47,8 -62,25l0 39c8,12 25,14 38,16l33 6c17,3 46,6 46,29l0 32c0,28 -39,43 -73,43z"/>
  <path class="fil1 str0" d="M64 426c-16,0 -35,-1 -50,-6l0 -13c13,4 29,7 50,7 27,0 47,-9 62,-25l0 -39c-8,-13 -25,-14 -38,-17l-33 -5c-17,-3 -46,-6 -46,-30l0 -32c0,-27 38,-42 73,-42 16,0 35,1 49,6l0 12c-12,-3 -28,-6 -49,-6 -27,0 -47,8 -62,25l0 39c8,12 25,14 38,16l33 6c17,3 46,6 46,29l0 32c0,28 -39,43 -73,43z"/>
 </g>
</svg>
