<?xml version="1.0" encoding="UTF-8"?>
<!DOCTYPE svg PUBLIC "-//W3C//DTD SVG 1.1//EN" "http://www.w3.org/Graphics/SVG/1.1/DTD/svg11.dtd">
<!-- Creator: CorelDRAW X7 -->
<svg xmlns="http://www.w3.org/2000/svg" xml:space="preserve" width="1.27in" height="0.52in" version="1.1" style="shape-rendering:geometricPrecision; text-rendering:geometricPrecision; image-rendering:optimizeQuality; fill-rule:evenodd; clip-rule:evenodd"
viewBox="0 0 1270 520"
 xmlns:xlink="http://www.w3.org/1999/xlink">
 <defs>
  <style type="text/css">
   <![CDATA[
    .str0 {stroke:#FAA954;stroke-width:6.24803}
    .fil0 {fill:#FAA954}
    .fil1 {fill:#5C6C75}
   ]]>
  </style>
 </defs>
 <g id="Layer_x0020_1">
  <metadata id="CorelCorpID_0Corel-Layer"/>
  <path class="fil0" d="M306 381c-15,18 -33,25 -59,25 -29,0 -52,-9 -67,-25l0 -135c15,-17 35,-25 63,-25 28,0 48,8 63,25l0 135zm445 -371c-253,13 -467,100 -523,195 -33,4 -65,20 -65,46l0 246c0,5 4,9 9,9 4,0 8,-4 8,-9l0 -91c27,14 54,17 67,17 38,0 76,-16 76,-47l0 -13c27,-240 195,-320 543,-348 21,-2 41,-1 61,-2 -35,-2 -71,-4 -108,-4l-4 0c-21,0 -42,0 -64,1z"/>
  <path class="fil0" d="M709 130c13,-13 40,-27 78,-39 90,-34 226,-63 380,-76 32,-3 63,-4 93,-5 -56,-1 -118,1 -182,5 -273,17 -492,71 -488,120 1,19 32,33 84,44 -1,-16 12,-33 35,-49z"/>
  <path class="fil0" d="M63 422c-16,0 -35,-1 -49,-6l0 -13c12,4 28,8 49,8 27,0 47,-9 62,-26l0 -39c-8,-12 -24,-14 -38,-16l-33 -6c-17,-3 -46,-6 -46,-30l0 -31c0,-28 39,-43 73,-43 16,0 35,1 50,6l0 13c-13,-4 -29,-7 -50,-7 -27,0 -47,8 -62,25l0 39c8,12 25,15 38,17l33 5c17,3 46,6 46,30l0 32c0,27 -38,42 -73,42z"/>
  <path class="fil0 str0" d="M63 422c-16,0 -35,-1 -49,-6l0 -13c12,4 28,8 49,8 27,0 47,-9 62,-26l0 -39c-8,-12 -24,-14 -38,-16l-33 -6c-17,-3 -46,-6 -46,-30l0 -31c0,-28 39,-43 73,-43 16,0 35,1 50,6l0 13c-13,-4 -29,-7 -50,-7 -27,0 -47,8 -62,25l0 39c8,12 25,15 38,17l33 5c17,3 46,6 46,30l0 32c0,27 -38,42 -73,42z"/>
  <path class="fil1" d="M485 482c-24,0 -54,-3 -86,-17l0 -61c34,13 56,18 86,18 26,0 44,-8 56,-19l0 -14 -84 -13c-24,-4 -65,-17 -65,-57l0 -20c0,-58 74,-76 115,-76 24,0 54,4 87,17l0 61c-35,-13 -56,-18 -87,-18 -26,0 -44,8 -56,20l0 13 84 13c25,4 66,17 66,57l0 20c0,58 -75,76 -116,76z"/>
  <path class="fil1" d="M645 478l0 -328c0,-17 14,-30 30,-30 17,0 30,13 30,30l0 328 -60 0z"/>
  <path class="fil1" d="M985 465l0 -166c0,-58 -75,-76 -116,-76 -23,0 -64,4 -93,17l0 61c29,-9 63,-18 93,-18 26,0 45,8 56,20l0 7 -76 18c-34,9 -96,16 -96,64l0 23c0,53 78,67 128,67 34,0 71,-8 104,-17zm-60 -48c-16,3 -32,5 -44,5 -38,0 -57,-3 -68,-12l0 -12c16,-5 33,-8 49,-11l63 -15 0 45z"/>
  <path class="fil1" d="M1263 406l0 -107c0,-57 -69,-76 -111,-76 -18,0 -41,3 -61,10l0 -83c0,-17 -13,-30 -30,-30 -16,0 -30,13 -30,30l0 256c0,58 75,76 116,76 42,0 116,-18 116,-76zm-59 -104l0 101c-12,11 -31,19 -57,19 -26,0 -44,-8 -56,-19l0 -100c12,-12 34,-20 61,-20 25,0 40,8 52,19z"/>
 </g>
</svg>
