<svg xmlns="http://www.w3.org/2000/svg" xmlns:xlink="http://www.w3.org/1999/xlink" viewBox="0 0 160 160"><defs><style>.cls-1{fill:none;}.cls-2{fill:#303356;}.cls-3{clip-path:url(#clip-path);}.cls-4{fill:#fff;}</style><clipPath id="clip-path"><polygon class="cls-1" points="65 135 90 125 115 135 140 125 140 85 115 75 115 35 90 25 65 35 40 25 15 35 15 75 40 85 40 125 65 135"/></clipPath></defs><title>aecc_logo_dark</title><g id="Layer_2" data-name="Layer 2"><rect class="cls-2" width="160" height="160"/></g><g id="Layer_7" data-name="Layer 7"><g class="cls-3"><polygon class="cls-4" points="13.89 32.22 40 25 16.11 37.78 13.89 32.22"/><polygon class="cls-4" points="63.89 37.78 40 25 66.11 32.22 63.89 37.78"/><polygon class="cls-4" points="90 25 66.11 37.78 63.89 32.22 90 25"/><polygon class="cls-4" points="113.89 37.78 90 25 116.11 32.22 113.89 37.78"/><polygon class="cls-4" points="115 75 112 35 118 35 115 75"/><polygon class="cls-4" points="18 35 15 75 12 35 18 35"/><polygon class="cls-4" points="38.89 87.78 15 75 41.11 82.22 38.89 87.78"/><polygon class="cls-4" points="65 75 41.11 87.78 38.89 82.22 65 75"/><polygon class="cls-4" points="88.89 87.78 65 75 91.11 82.22 88.89 87.78"/><polygon class="cls-4" points="115 75 91.11 87.78 88.89 82.22 115 75"/><polygon class="cls-4" points="138.89 87.78 115 75 141.11 82.22 138.89 87.78"/><polygon class="cls-4" points="140 125 137 85 143 85 140 125"/><polygon class="cls-4" points="113.89 132.22 140 125 116.11 137.78 113.89 132.22"/><polygon class="cls-4" points="90 125 116.11 132.22 113.89 137.78 90 125"/><polygon class="cls-4" points="63.89 132.22 90 125 66.11 137.78 63.89 132.22"/><polygon class="cls-4" points="40 125 66.11 132.22 63.89 137.78 40 125"/><polygon class="cls-4" points="43 85 40 125 37 85 43 85"/><polygon class="cls-4" points="68 35 65 75 62 35 68 35"/><polygon class="cls-4" points="93 85 90 125 87 85 93 85"/><path class="cls-4" d="M30.37,68.38a.63.63,0,0,1-.05-.56l7.81-23.76a.65.65,0,0,1,.27-.34.72.72,0,0,1,.42-.13h2.37a.74.74,0,0,1,.42.13.65.65,0,0,1,.27.34l7.81,23.76a.73.73,0,0,1,0,.25.51.51,0,0,1-.16.38.56.56,0,0,1-.41.16H47.38a.78.78,0,0,1-.41-.12.67.67,0,0,1-.27-.35l-2-6.26H35.32l-2,6.26a.52.52,0,0,1-.25.35.91.91,0,0,1-.44.12H30.86A.57.57,0,0,1,30.37,68.38Zm13.49-9.13L40,47.34,36.15,59.25Z"/><path class="cls-4" d="M83.56,68.23a1.2,1.2,0,0,1-.38-.91V44.89a1.22,1.22,0,0,1,.38-.92,1.24,1.24,0,0,1,.91-.38H96.32a.5.5,0,0,1,.5.51v1.76a.52.52,0,0,1-.14.36.48.48,0,0,1-.36.14H86.13v7.71h7.78a.48.48,0,0,1,.5.5v1.69a.5.5,0,0,1-.5.51H86.13v9.07H96.32a.48.48,0,0,1,.5.5v1.77a.48.48,0,0,1-.5.5H84.47A1.2,1.2,0,0,1,83.56,68.23Z"/><path class="cls-4" d="M61.65,116.81a8.83,8.83,0,0,1-4.28-7.6v-8.42a8.83,8.83,0,0,1,4.28-7.6A8.26,8.26,0,0,1,66,92a9.6,9.6,0,0,1,3.57.67,8.61,8.61,0,0,1,2.91,1.93.51.51,0,0,1,.18.43.73.73,0,0,1-.18.47c-.5.57-.83.93-1,1.08a.88.88,0,0,1-.5.18.73.73,0,0,1-.54-.26A6.16,6.16,0,0,0,66,94.78a5.23,5.23,0,0,0-2.85.82,6.17,6.17,0,0,0-2.8,5.19v8.42a6.17,6.17,0,0,0,2.8,5.19,5.23,5.23,0,0,0,2.85.82,6.16,6.16,0,0,0,4.43-1.72.73.73,0,0,1,.54-.26.88.88,0,0,1,.5.18c.14.15.47.51,1,1.08a.64.64,0,0,1,.18.47.58.58,0,0,1-.18.43,8.61,8.61,0,0,1-2.91,1.93A9.6,9.6,0,0,1,66,118,8.26,8.26,0,0,1,61.65,116.81Z"/><path class="cls-4" d="M114.15,116.81a8.83,8.83,0,0,1-4.28-7.6v-8.42a8.83,8.83,0,0,1,4.28-7.6A8.26,8.26,0,0,1,118.47,92a9.6,9.6,0,0,1,3.57.67A8.61,8.61,0,0,1,125,94.6a.51.51,0,0,1,.18.43.73.73,0,0,1-.18.47c-.5.57-.83.93-1,1.08a.88.88,0,0,1-.5.18.73.73,0,0,1-.54-.26,6.16,6.16,0,0,0-4.43-1.72,5.23,5.23,0,0,0-2.85.82,6.17,6.17,0,0,0-2.8,5.19v8.42a6.17,6.17,0,0,0,2.8,5.19,5.23,5.23,0,0,0,2.85.82,6.16,6.16,0,0,0,4.43-1.72.73.73,0,0,1,.54-.26.88.88,0,0,1,.5.18c.14.15.47.51,1,1.08a.64.64,0,0,1,.18.47.58.58,0,0,1-.18.43,8.61,8.61,0,0,1-2.91,1.93,9.6,9.6,0,0,1-3.57.67A8.26,8.26,0,0,1,114.15,116.81Z"/></g></g></svg>