<svg id="Layer_7" data-name="Layer 7" xmlns="http://www.w3.org/2000/svg" xmlns:xlink="http://www.w3.org/1999/xlink" viewBox="0 0 131 112.79"><defs><style>.cls-1{fill:none;}.cls-2{clip-path:url(#clip-path);}.cls-3{fill:#fff;}</style><clipPath id="clip-path" transform="translate(-12 -25)"><polygon class="cls-1" points="65 135 90 125 115 135 140 125 140 85 115 75 115 35 90 25 65 35 40 25 15 35 15 75 40 85 40 125 65 135"/></clipPath></defs><title>aecc</title><g class="cls-2"><polygon class="cls-3" points="1.89 7.21 28 0 4.11 12.79 1.89 7.21"/><polygon class="cls-3" points="51.89 12.79 28 0 54.11 7.21 51.89 12.79"/><polygon class="cls-3" points="78 0 54.11 12.79 51.89 7.21 78 0"/><polygon class="cls-3" points="101.89 12.79 78 0 104.11 7.21 101.89 12.79"/><polygon class="cls-3" points="103 50 100 10 106 10 103 50"/><polygon class="cls-3" points="6 10 3 50 0 10 6 10"/><polygon class="cls-3" points="26.89 62.78 3 50 29.11 57.22 26.89 62.78"/><polygon class="cls-3" points="53 50 29.11 62.78 26.89 57.22 53 50"/><polygon class="cls-3" points="76.89 62.78 53 50 79.11 57.22 76.89 62.78"/><polygon class="cls-3" points="103 50 79.11 62.78 76.89 57.22 103 50"/><polygon class="cls-3" points="126.89 62.78 103 50 129.11 57.22 126.89 62.78"/><polygon class="cls-3" points="128 100 125 60 131 60 128 100"/><polygon class="cls-3" points="101.89 107.22 128 100 104.11 112.78 101.89 107.22"/><polygon class="cls-3" points="78 100 104.11 107.22 101.89 112.78 78 100"/><polygon class="cls-3" points="51.89 107.22 78 100 54.11 112.78 51.89 107.22"/><polygon class="cls-3" points="28 100 54.11 107.22 51.89 112.78 28 100"/><polygon class="cls-3" points="31 60 28 100 25 60 31 60"/><polygon class="cls-3" points="56 10 53 50 50 10 56 10"/><polygon class="cls-3" points="81 60 78 100 75 60 81 60"/><path class="cls-3" d="M30.37,68.38a.63.63,0,0,1-.05-.56l7.81-23.76a.65.65,0,0,1,.27-.34.72.72,0,0,1,.42-.13h2.37a.74.74,0,0,1,.42.13.65.65,0,0,1,.27.34l7.81,23.76a.73.73,0,0,1,0,.25.51.51,0,0,1-.16.38.56.56,0,0,1-.41.16H47.38a.78.78,0,0,1-.41-.12.67.67,0,0,1-.27-.35l-2-6.26H35.32l-2,6.26a.52.52,0,0,1-.25.35.91.91,0,0,1-.44.12H30.86A.57.57,0,0,1,30.37,68.38Zm13.49-9.13L40,47.34,36.15,59.25Z" transform="translate(-12 -25)"/><path class="cls-3" d="M83.56,68.23a1.2,1.2,0,0,1-.38-.91V44.89a1.22,1.22,0,0,1,.38-.92,1.24,1.24,0,0,1,.91-.38H96.32a.5.5,0,0,1,.5.51v1.76a.52.52,0,0,1-.14.36.48.48,0,0,1-.36.14H86.13v7.71h7.78a.48.48,0,0,1,.5.5v1.69a.5.5,0,0,1-.5.51H86.13v9.07H96.32a.48.48,0,0,1,.5.5v1.77a.48.48,0,0,1-.5.5H84.47A1.2,1.2,0,0,1,83.56,68.23Z" transform="translate(-12 -25)"/><path class="cls-3" d="M61.65,116.81a8.83,8.83,0,0,1-4.28-7.6v-8.42a8.83,8.83,0,0,1,4.28-7.6A8.26,8.26,0,0,1,66,92a9.6,9.6,0,0,1,3.57.67,8.61,8.61,0,0,1,2.91,1.93.51.51,0,0,1,.18.43.73.73,0,0,1-.18.47c-.5.57-.83.93-1,1.08a.88.88,0,0,1-.5.18.73.73,0,0,1-.54-.26A6.16,6.16,0,0,0,66,94.78a5.23,5.23,0,0,0-2.85.82,6.17,6.17,0,0,0-2.8,5.19v8.42a6.17,6.17,0,0,0,2.8,5.19,5.23,5.23,0,0,0,2.85.82,6.16,6.16,0,0,0,4.43-1.72.73.73,0,0,1,.54-.26.88.88,0,0,1,.5.18c.14.15.47.51,1,1.08a.64.64,0,0,1,.18.47.58.58,0,0,1-.18.43,8.61,8.61,0,0,1-2.91,1.93A9.6,9.6,0,0,1,66,118,8.26,8.26,0,0,1,61.65,116.81Z" transform="translate(-12 -25)"/><path class="cls-3" d="M114.15,116.81a8.83,8.83,0,0,1-4.28-7.6v-8.42a8.83,8.83,0,0,1,4.28-7.6A8.26,8.26,0,0,1,118.47,92a9.6,9.6,0,0,1,3.57.67A8.61,8.61,0,0,1,125,94.6a.51.51,0,0,1,.18.43.73.73,0,0,1-.18.47c-.5.57-.83.93-1,1.08a.88.88,0,0,1-.5.18.73.73,0,0,1-.54-.26,6.16,6.16,0,0,0-4.43-1.72,5.23,5.23,0,0,0-2.85.82,6.17,6.17,0,0,0-2.8,5.19v8.42a6.17,6.17,0,0,0,2.8,5.19,5.23,5.23,0,0,0,2.85.82,6.16,6.16,0,0,0,4.43-1.72.73.73,0,0,1,.54-.26.88.88,0,0,1,.5.18c.14.15.47.51,1,1.08a.64.64,0,0,1,.18.47.58.58,0,0,1-.18.43,8.61,8.61,0,0,1-2.91,1.93,9.6,9.6,0,0,1-3.57.67A8.26,8.26,0,0,1,114.15,116.81Z" transform="translate(-12 -25)"/></g></svg>