<?xml version="1.0" encoding="utf-8"?>
<!-- Generator: Adobe Illustrator 21.0.2, SVG Export Plug-In . SVG Version: 6.00 Build 0)  -->
<!DOCTYPE svg PUBLIC "-//W3C//DTD SVG 1.1//EN" "http://www.w3.org/Graphics/SVG/1.1/DTD/svg11.dtd">
<svg version="1.1" id="Layer_1" xmlns="http://www.w3.org/2000/svg" xmlns:xlink="http://www.w3.org/1999/xlink" x="0px" y="0px"
	 viewBox="0 0 308 71" style="enable-background:new 0 0 308 71;" xml:space="preserve">
<style type="text/css">
	.st0{fill:#FFFFFF;}
	.st1{fill:#0063AA;}
</style>
<g>
	<g>
		<path class="st0" d="M4.9,62H0.4v-1h10.3v1H6.1v8.4H4.9V62z"/>
		<path class="st0" d="M13.7,61h1.1v4h7.4v-4h1.1v9.5h-1.1V66h-7.4v4.4h-1.1V61z"/>
		<path class="st0" d="M27.5,61h8.4v1h-7.3v3h6.1v1h-6.1v3.4h7.4v1h-8.6V61z"/>
		<path class="st0" d="M55.2,67.9c-1,2-2.8,2.7-5.1,2.7c-3.7,0-5.4-2.2-5.4-4.9c0-3.3,2.2-5,5.4-5c2,0,4.1,0.8,4.9,2.7l-1,0.5
			c-0.7-1.5-2.1-2.2-3.9-2.2c-2.7,0-4.2,1.5-4.2,4.2c0,2.2,1.5,3.8,4.3,3.8c1.9,0,3.2-0.8,4-2.2L55.2,67.9z"/>
		<path class="st0" d="M58.5,61h1.1v4h7.4v-4h1.1v9.5h-1.1V66h-7.4v4.4h-1.1V61z"/>
		<path class="st0" d="M77.1,60.7c3.2,0,5.5,1.9,5.5,5c0,3.4-2.8,4.9-5.5,4.9s-5.5-1.5-5.5-4.9C71.6,62.6,73.9,60.7,77.1,60.7z
			 M77.1,69.6c2.3,0,4.4-1.2,4.4-4.1c0-2.1-1.6-3.8-4.4-3.8s-4.4,1.7-4.4,3.8C72.8,68.4,74.8,69.6,77.1,69.6z"/>
		<path class="st0" d="M86,61h1.1v9.5H86V61z"/>
		<path class="st0" d="M101,67.9c-1,2-2.8,2.7-5.1,2.7c-3.7,0-5.4-2.2-5.4-4.9c0-3.3,2.2-5,5.4-5c2,0,4.1,0.8,4.9,2.7l-1,0.5
			c-0.7-1.5-2.1-2.2-3.9-2.2c-2.7,0-4.2,1.5-4.2,4.2c0,2.2,1.5,3.8,4.3,3.8c1.9,0,3.2-0.8,4-2.2L101,67.9z"/>
		<path class="st0" d="M104.3,61h8.4v1h-7.3v3h6.1v1h-6.1v3.4h7.4v1h-8.6V61z"/>
		<path class="st0" d="M122.2,61h8.6v1h-7.5v3h6.3v1h-6.3v4.4h-1.1V61z"/>
		<path class="st0" d="M138.7,60.7c3.2,0,5.5,1.9,5.5,5c0,3.4-2.8,4.9-5.5,4.9s-5.5-1.5-5.5-4.9C133.2,62.6,135.5,60.7,138.7,60.7z
			 M138.7,69.6c2.3,0,4.4-1.2,4.4-4.1c0-2.1-1.6-3.8-4.4-3.8s-4.4,1.7-4.4,3.8C134.3,68.4,136.4,69.6,138.7,69.6z"/>
		<path class="st0" d="M147.6,61h5.5c1.5,0,3.7,0.3,3.7,2.6c0,2-1.8,2.5-3,2.6l3.1,4.2h-1.4l-3-4.2h-3.7v4.2h-1.1L147.6,61L147.6,61
			z M148.7,65.2h4.1c1.7,0,2.9-0.2,2.9-1.6c0-1.4-1.2-1.6-2.9-1.6h-4.1V65.2z"/>
		<path class="st0" d="M176.8,67.9c-1,2-2.8,2.7-5.1,2.7c-3.7,0-5.4-2.2-5.4-4.9c0-3.3,2.2-5,5.4-5c2,0,4.1,0.8,4.9,2.7l-1,0.5
			c-0.7-1.5-2.1-2.2-3.9-2.2c-2.7,0-4.2,1.5-4.2,4.2c0,2.2,1.5,3.8,4.3,3.8c1.9,0,3.2-0.8,4-2.2L176.8,67.9z"/>
		<path class="st0" d="M180,61h8.6v1h-7.5v3h6.3v1h-6.3v4.4H180L180,61L180,61z"/>
		<path class="st0" d="M191.6,61h4.7c2.9,0,5.1,1.5,5.1,4.6c0,3.8-2.9,4.8-5.4,4.8h-4.3L191.6,61L191.6,61z M192.8,69.4h3.3
			c0.9,0,4.1-0.1,4.1-3.8c0-2.8-2-3.6-3.9-3.6h-3.5V69.4z"/>
		<path class="st0" d="M211,61h1.8l3.5,8l3.5-8h1.8v9.5h-1.1V62h0l-3.7,8.4h-1l-3.7-8.4h0v8.4H211L211,61L211,61z"/>
		<path class="st0" d="M225.5,61h8.4v1h-7.3v3h6.1v1h-6.1v3.4h7.4v1h-8.6L225.5,61L225.5,61z"/>
		<path class="st0" d="M237.2,67.7c0.5,0.7,1.5,1.9,4.3,1.9c1.5,0,3.4-0.4,3.4-1.9c0-2.9-8.2-0.4-8.2-4.2c0-2,1.9-2.8,4.4-2.8
			c2.5,0,4,1,4.7,1.9l-0.8,0.7c-0.4-0.4-1.3-1.7-3.9-1.7c-1.9,0-3.2,0.5-3.2,1.7c0,2.9,8.2,0.1,8.2,4.4c0,1.6-1.5,2.9-4.7,2.9
			c-3.1,0-4.2-1.3-5-2.2L237.2,67.7z"/>
		<path class="st0" d="M249.5,61h1.1v4h7.4v-4h1.1v9.5h-1.1V66h-7.4v4.4h-1.1V61z"/>
		<path class="st0" d="M263.3,61h1.1v9.5h-1.1V61z"/>
		<path class="st0" d="M268.4,61h1.6l7,7.8V61h1.1v9.5h-1.1l-7.6-8.4v8.4h-1.1L268.4,61L268.4,61z"/>
		<path class="st0" d="M291.8,65.8v4.7h-1v-1.4c-0.6,0.7-1.7,1.5-3.8,1.5c-3.7,0-5.4-2.2-5.4-4.9c0-3.3,2.2-5,5.4-5
			c2.2,0,4,1,4.7,2.6l-1,0.5c-0.7-1.7-2.5-2.1-3.8-2.1c-2.7,0-4.2,1.5-4.2,4.2c0,2.2,1.5,3.8,4.3,3.8c1.7,0,3.6-0.8,3.7-2.8h-3.8v-1
			L291.8,65.8L291.8,65.8z"/>
	</g>
	<path class="st0" d="M0.4,2.1h18.1c0,0,9.8,0.9,9.8,14c0,0,0.3,13.5-9.8,13.5h-8.2v18.6H0.4l0-29.1h14.7c0,0,1.9,0,1.9-3
		c0,0,0.3-2.4-1.9-2.4H0.4V2.1z"/>
	<rect x="79" y="2.1" class="st0" width="10.1" height="45.9"/>
	<path class="st0" d="M93.3,48.1v-46h19.4c0,0,11.9-0.2,11.9,14v32h-9.7v-32c0,0,0.1-2.4-2.8-2.4h-8.8l0,34.5h-9.6L93.3,48.1z"/>
	<rect x="126.2" y="2.1" class="st0" width="30.4" height="11.3"/>
	<rect x="136.2" y="19" class="st0" width="10.4" height="29.1"/>
	<polyline class="st0" points="158.6,2.1 168.6,2.1 182.3,35.4 177.4,47.8 	"/>
	<polygon class="st0" points="184.1,2.1 178.8,14.7 192.9,48 211.5,2.1 200.3,2.1 193,21.9 	"/>
	<rect x="214.1" y="2.1" class="st0" width="10.1" height="45.9"/>
	<path class="st0" d="M233.4,2.1c0,0-3.8,9,6,18.8c0,0,9.4,7.7,8.4,12.7c0,0-0.7,4-5.2,4.3c0,0-10.3,0.3-11,0.3h-0.7v9.7h13.5
		c0,0,13.9,0.9,13.9-16c0,0,0.3-5.6-7.8-13.7c0,0-6.1-6.3-6.6-8.3c-0.5-1.9,0-7.4,0-7.4V2.1L233.4,2.1L233.4,2.1z"/>
	<rect x="261.8" y="2.1" class="st0" width="30" height="11.3"/>
	<polygon class="st0" points="261.8,19.1 261.8,48.2 291.8,48.2 291.8,38 272,38 272,29.7 291.8,29.7 291.8,19.1 	"/>
	<path class="st0" d="M300.4,6.3h0.8c0.9,0,1.7-0.3,1.7-1.2c0-0.6-0.4-1.2-1.7-1.2c-0.4,0-0.6,0-0.8,0.1V6.3z M300.4,10.1h-1.1V3.2
		c0.6-0.1,1.1-0.2,1.9-0.2c1,0,1.7,0.2,2.1,0.5c0.4,0.3,0.6,0.8,0.6,1.4c0,0.9-0.6,1.5-1.3,1.7v0.1c0.6,0.1,1,0.7,1.1,1.7
		c0.2,1.1,0.3,1.5,0.4,1.7h-1.1c-0.2-0.2-0.3-0.8-0.5-1.7c-0.2-0.9-0.6-1.2-1.5-1.2h-0.8L300.4,10.1L300.4,10.1z M301.5,1.3
		c-2.7,0-4.9,2.3-4.9,5.2c0,2.9,2.2,5.2,5,5.2c2.7,0,4.9-2.3,4.9-5.2C306.5,3.6,304.3,1.3,301.5,1.3L301.5,1.3z M301.6,0.4
		c3.4,0,6.1,2.7,6.1,6.2c0,3.5-2.7,6.2-6.1,6.2c-3.4,0-6.1-2.7-6.1-6.2C295.4,3.1,298.2,0.4,301.6,0.4L301.6,0.4z"/>
	<ellipse class="st0" cx="53.3" cy="25.1" rx="23" ry="23"/>
	<g>
		<path class="st1" d="M40.2,9.9c0.8,0,1.6,0.1,2.4,0.2c0.7-0.9,1.7-1.7,2.7-2.3l-0.5-1.1C43,7.6,41.5,8.6,40.2,9.9"/>
		<path class="st1" d="M50,40.4c1.6,0,3.2-0.2,4.7-0.5c1.6-0.3,3.3-0.8,4.8-1.5l-4.1-8.8c-1.5,0.6-3,1-4.5,1.3
			c-1.7,0.3-3.3,0.4-4.9,0.2c0.3,3,0.9,6.1,1.8,9.2C48.6,40.3,49.3,40.4,50,40.4"/>
		<path class="st1" d="M70.1,30.2c-1.9-2.7-3.9-5.2-6-7.3c-1.8,2.5-4.3,4.5-7.1,6l4.1,8.8C64.7,35.9,67.8,33.3,70.1,30.2"/>
		<path class="st1" d="M55.1,41.6c-2.2,0.5-4.5,0.6-6.7,0.5c0.7,2,1.5,4,2.4,6c4.4,0.5,8.5-0.3,12.3-2l-2.8-6
			C58.6,40.7,56.8,41.2,55.1,41.6"/>
		<path class="st1" d="M48.2,10c0.3-0.6,0.6-1.2,0.9-1.8c-0.1,0-0.2,0-0.2,0c-0.4,0.1-0.9,0.2-1.3,0.4L48.2,10z"/>
		<path class="st1" d="M43.3,11.9c-0.5,0.8-0.8,1.7-0.9,2.6c1-0.8,2.1-1.5,3.2-2.2C44.9,12.2,44.2,12,43.3,11.9"/>
		<path class="st1" d="M75.7,19.9c-0.2,3.5-1.3,7-3.5,10.3c0.8,1.2,1.6,2.5,2.3,3.7c1.2-2.8,1.8-5.8,1.8-8.8
			C76.3,23.4,76.1,21.6,75.7,19.9"/>
		<path class="st1" d="M45.9,40c-0.9-3.1-1.5-6.1-1.7-9.1c-3.4-0.7-6.3-2.4-8.2-4.8c-0.9,2.6-1.4,5.3-1.3,8.1l0,0.2
			C37.7,37.2,41.6,39.2,45.9,40"/>
		<path class="st1" d="M61.8,39.2l2.8,5.9c3.8-2.2,7-5.4,9-9.3c-0.8-1.5-1.6-2.9-2.5-4.1C68.7,34.8,65.5,37.4,61.8,39.2"/>
		<path class="st1" d="M55,13.9c0.2-0.5,0.2-1.1,0.2-1.6c0-0.5-0.1-0.9-0.3-1.4c-1.5,0.2-2.9,0.6-4.3,1c0.1,0,0.2,0.1,0.3,0.1
			C52.3,12.6,53.7,13.2,55,13.9"/>
		<path class="st1" d="M51.1,8.2c-0.4,0.8-0.9,1.5-1.2,2.3c1.3-0.5,2.7-0.8,4.1-1.1C53.2,8.8,52.2,8.4,51.1,8.2"/>
		<path class="st1" d="M50.6,29.2c1.4-0.2,2.8-0.6,4.1-1.2L51,20.1c-0.6,0.2-1.3,0.4-1.9,0.5c-0.9,0.2-1.8,0.2-2.7,0.1
			c-0.5,2.8-0.7,5.7-0.6,8.7C47.4,29.5,49,29.5,50.6,29.2"/>
		<path class="st1" d="M44.6,10.4c0.7,0.1,1.4,0.3,2.1,0.4L46,9.3C45.5,9.6,45,10,44.6,10.4"/>
		<path class="st1" d="M64.8,11.4c-2-0.5-4-0.7-6-0.7h-0.1c-0.6,0-1.2,0-1.9,0.1c0.1,0.5,0.2,1,0.2,1.5c0,0.8-0.1,1.6-0.4,2.4
			c2.5,1.5,5,3.3,7.3,5.4c1-1.9,1.5-3.9,1.5-5.8C65.3,13.4,65.1,12.4,64.8,11.4"/>
		<path class="st1" d="M46.8,7.1c0.6-0.2,1.2-0.4,1.8-0.5c0.5-0.1,1.1-0.1,1.6-0.1c0.4-0.6,0.7-1.2,1.1-1.7c-0.3,0-0.6,0.1-0.9,0.1
			c-1.4,0.2-2.7,0.6-4,1.1L46.8,7.1z"/>
		<path class="st1" d="M36,22.1c1.1-1.9,2.4-3.7,4-5.3c0.3-0.3,0.6-0.6,0.9-0.9c-0.1-0.3-0.1-0.7-0.1-1c0-1.1,0.2-2.2,0.8-3.2
			c-1-0.1-1.9-0.1-2.9-0.2c-2,2.5-3.1,5.4-3.1,8.2C35.6,20.5,35.7,21.3,36,22.1"/>
		<path class="st1" d="M54.3,15.5c-1.3-0.7-2.6-1.3-3.9-1.8c-0.2-0.1-0.3-0.1-0.5-0.2l2,4.3C52.8,17.2,53.6,16.4,54.3,15.5"/>
		<path class="st1" d="M52,6.6c1.6,0.4,3,1.2,3.9,2.5C56.8,9,57.7,9,58.6,9h0.1c1.7,0,3.4,0.2,5,0.5c-2-3-5.9-4.8-10.3-4.9
			C52.9,5.3,52.5,6,52,6.6"/>
		<path class="st1" d="M48.8,18.9c0.5-0.1,0.9-0.2,1.4-0.4l-2.1-4.4c-0.6,1.6-1.1,3.2-1.5,4.9C47.4,19.1,48.1,19.1,48.8,18.9"/>
		<path class="st1" d="M41.5,17.6c-0.1,0.1-0.2,0.2-0.4,0.4c-1.8,1.8-3.2,3.9-4.3,6.2c1.5,2.5,4,4.2,7.3,4.9c-0.1-3,0.1-6,0.6-8.8
			C43.3,19.8,42.2,18.8,41.5,17.6"/>
		<path class="st1" d="M33.9,19.7c-0.1-2.8,0.8-5.6,2.6-8.2c-0.6,0-1.3,0.1-1.9,0.1c-2.8,3.9-4.4,8.6-4.4,13.4c0,0.6,0,1.3,0.1,2
			c0.6,1.9,1.5,3.7,2.7,5.3c0.1-2.8,0.8-5.6,1.9-8.2C34.3,22.8,33.9,21.3,33.9,19.7"/>
		<path class="st1" d="M62.9,21.7c-2.3-2.1-4.7-3.9-7.2-5.4c-0.8,1.2-1.9,2.3-3.2,3.1l3.7,8C59,25.9,61.3,24,62.9,21.7"/>
		<path class="st1" d="M31.9,33.7c0.4,0.9,0.8,1.8,1.3,2.6c0-0.4-0.1-0.9-0.1-1.3C32.7,34.6,32.3,34.2,31.9,33.7"/>
		<path class="st1" d="M45.1,18.6c0.4-1.6,0.8-3.2,1.4-4.7c-1.3,0.7-2.5,1.6-3.7,2.6C43.2,17.4,44,18.1,45.1,18.6"/>
		<path class="st1" d="M35,36.8c0.1,1,0.4,2.1,0.6,3c3.4,4,8,6.8,13.2,7.8c-0.9-2-1.7-3.9-2.3-5.9C42.2,41.2,38.2,39.5,35,36.8"/>
		<path class="st1" d="M67,14.3c0.1,2.4-0.6,4.8-1.9,7.1c2.1,2.1,4.2,4.6,6.1,7.3c2.3-3.8,3.2-7.9,2.7-11.9
			c-0.1-0.4-0.1-0.8-0.2-1.2c-2.1-1.5-4.4-2.7-6.9-3.5C66.9,12.8,67,13.5,67,14.3"/>
		<path class="st1" d="M44,5.2l-0.4-0.9c-1.3,0.6-2.5,1.3-3.6,2.1c-1.4,1-2.8,2.2-3.9,3.5c0.6,0,1.2,0,1.8-0.1
			C39.6,7.9,41.7,6.3,44,5.2"/>
		<path class="st1" d="M45.6,4.5c1.4-0.6,2.9-1,4.4-1.3c0.8-0.1,1.7-0.2,2.5-0.3c0.2-0.3,0.4-0.5,0.6-0.7c-0.1,0-0.1,0-0.2,0h0
			l-0.2,0c-2.6,0.1-5.2,0.5-7.6,1.4L45.6,4.5z"/>
		<path class="st1" d="M53.1,2.2c-0.1,0-0.1,0-0.2,0C53,2.2,53.1,2.2,53.1,2.2C53.1,2.2,53.1,2.2,53.1,2.2L53.1,2.2z"/>
		<path class="st1" d="M66,10c2.4,0.7,4.6,1.6,6.7,2.9c-3.8-6-10.3-10-17.4-10.6c-0.2,0.2-0.4,0.5-0.6,0.7C59.9,3.3,64.2,5.9,66,10"
			/>
	</g>
</g>
</svg>
