<?xml version="1.0" encoding="UTF-8"?>
<!DOCTYPE svg PUBLIC "-//W3C//DTD SVG 1.1//EN" "http://www.w3.org/Graphics/SVG/1.1/DTD/svg11.dtd">
<!-- Creator: CorelDRAW X7 -->
<svg xmlns="http://www.w3.org/2000/svg" xml:space="preserve" width="1.92in" height="0.52in" version="1.1" style="shape-rendering:geometricPrecision; text-rendering:geometricPrecision; image-rendering:optimizeQuality; fill-rule:evenodd; clip-rule:evenodd"
viewBox="0 0 1920 520"
 xmlns:xlink="http://www.w3.org/1999/xlink">
 <defs>
  <style type="text/css">
   <![CDATA[
    .str0 {stroke:#4B9ECE;stroke-width:6.24803}
    .fil0 {fill:#5C6C75}
    .fil1 {fill:#4B9ECE}
   ]]>
  </style>
 </defs>
 <g id="Layer_x0020_1">
  <metadata id="CorelCorpID_0Corel-Layer"/>
  <path class="fil0" d="M502 481c-41,0 -117,-18 -117,-76l0 -106c0,-59 76,-76 117,-76 24,0 53,3 85,16l0 61c-34,-12 -55,-18 -85,-18 -26,0 -45,8 -57,20l0 100c12,11 31,19 57,19 30,0 51,-5 85,-17l0 61c-32,13 -61,16 -85,16z"/>
  <path class="fil0" d="M847 405l0 -106c0,-59 -75,-76 -116,-76 -41,0 -116,17 -116,76l0 106c0,58 75,76 116,76 41,0 116,-18 116,-76zm-60 -3c-11,11 -30,19 -56,19 -26,0 -44,-8 -56,-19l0 -100c12,-12 30,-20 56,-20 26,0 45,8 56,20l0 100z"/>
  <path class="fil0" d="M889 477l0 -328c0,-17 13,-30 30,-30 16,0 30,13 30,30l0 328 -60 0z"/>
  <path class="fil0" d="M1109 481c-41,0 -116,-18 -116,-76l0 -179 60 0 0 176c12,11 30,19 56,19 26,0 45,-8 56,-19l0 -176 60 0 0 179c0,58 -75,76 -116,76z"/>
  <path class="fil0" d="M1580 477l0 -175c-12,-12 -23,-20 -48,-20 -25,0 -37,8 -49,20l0 175 -60 0 0 -175c-11,-12 -24,-20 -48,-20 -26,0 -38,8 -49,20l0 175 -60 0 0 -173c0,-54 63,-81 109,-81 27,0 56,8 78,25 22,-17 51,-25 79,-25 45,0 108,27 108,81l0 173 -60 0z"/>
  <path class="fil0" d="M1854 477l0 -175c-12,-12 -31,-20 -57,-20 -26,0 -44,8 -56,20l0 175 -60 0 0 -178c0,-59 75,-76 116,-76 42,0 116,17 116,76l0 178 -59 0z"/>
  <path class="fil1" d="M307 381c-15,17 -33,25 -59,25 -29,0 -53,-9 -67,-25l0 -136c15,-16 35,-25 63,-25 28,0 48,9 63,25l0 136zm445 -371c-253,12 -468,99 -523,194 -34,4 -65,20 -65,47l0 246c0,4 4,8 8,8 5,0 9,-4 9,-8l0 -92c27,15 53,17 67,17 38,0 76,-16 76,-47l0 -13c26,-240 195,-319 543,-348 20,-1 41,-1 61,-1 -36,-3 -73,-5 -111,-5 -21,0 -43,1 -65,2z"/>
  <path class="fil1" d="M710 129c12,-13 40,-26 78,-39 90,-34 226,-63 380,-76 32,-2 63,-4 93,-5 -57,-1 -118,1 -183,5 -272,17 -491,71 -488,121 1,18 32,33 85,44 -1,-17 11,-34 35,-50z"/>
  <path class="fil1 str0" d="M64 421c-16,0 -35,0 -50,-5l0 -13c13,4 29,7 50,7 27,0 47,-9 62,-26l0 -39c-8,-12 -25,-14 -38,-16l-33 -6c-17,-2 -46,-6 -46,-29l0 -32c0,-28 38,-42 73,-42 16,0 35,0 49,5l0 13c-12,-4 -28,-7 -49,-7 -27,0 -47,9 -62,26l0 39c8,12 24,14 38,16l33 6c17,3 46,5 46,29l0 32c0,28 -39,42 -73,42z"/>
 </g>
</svg>
