<?xml version="1.0" encoding="UTF-8"?>
<!DOCTYPE svg PUBLIC "-//W3C//DTD SVG 1.1//EN" "http://www.w3.org/Graphics/SVG/1.1/DTD/svg11.dtd">
<!-- Creator: CorelDRAW X7 -->
<svg xmlns="http://www.w3.org/2000/svg" xml:space="preserve" width="1.52in" height="0.52in" version="1.1" style="shape-rendering:geometricPrecision; text-rendering:geometricPrecision; image-rendering:optimizeQuality; fill-rule:evenodd; clip-rule:evenodd"
viewBox="0 0 1520 520"
 xmlns:xlink="http://www.w3.org/1999/xlink">
 <defs>
  <style type="text/css">
   <![CDATA[
    .str0 {stroke:#6CB049;stroke-width:6.24803}
    .fil0 {fill:#5C6C75}
    .fil1 {fill:#6CB049}
   ]]>
  </style>
 </defs>
 <g id="Layer_x0020_1">
  <metadata id="CorelCorpID_0Corel-Layer"/>
  <path class="fil0" d="M739 479l0 -175c-12,-12 -24,-20 -49,-20 -25,0 -37,8 -49,20l0 175 -59 0 0 -175c-12,-12 -24,-20 -49,-20 -25,0 -37,8 -49,20l0 175 -60 0 0 -173c0,-54 63,-81 109,-81 27,0 57,8 78,25 22,-17 52,-25 79,-25 46,0 108,27 108,81l0 173 -59 0z"/>
  <path class="fil0" d="M1071 467l0 -166c0,-58 -74,-76 -115,-76 -23,0 -65,3 -94,16l0 62c29,-10 64,-19 94,-19 26,0 44,8 56,20l0 8 -77 18c-34,8 -95,16 -95,63l0 24c0,52 77,66 127,66 35,0 72,-8 104,-16zm-59 -49c-17,3 -33,6 -45,6 -38,0 -57,-4 -67,-13l0 -11c15,-6 32,-9 49,-12l63 -15 0 45z"/>
  <path class="fil0" d="M1250 479c-41,0 -116,-17 -116,-76l0 -115c-17,0 -30,-13 -30,-30 0,-16 13,-30 30,-30l0 -68c0,-16 13,-29 30,-29 16,0 29,13 29,29l0 68 87 0 0 60 -87 0 0 112c12,12 31,20 57,20 16,0 30,13 30,30 0,17 -14,29 -30,29z"/>
  <path class="fil0" d="M1397 483c-23,0 -53,-3 -86,-16l0 -61c35,12 56,18 86,18 26,0 45,-9 57,-20l0 -14 -85 -13c-24,-4 -65,-17 -65,-57l0 -19c0,-58 75,-76 116,-76 24,0 53,3 86,16l0 61c-34,-12 -56,-18 -86,-18 -26,0 -45,8 -57,20l0 13 85 14c24,3 65,16 65,56l0 20c0,58 -75,76 -116,76z"/>
  <path class="fil1" d="M307 385c-15,18 -33,25 -59,25 -29,0 -52,-9 -66,-25l0 -135c14,-17 35,-25 62,-25 28,0 49,8 63,25l0 135zm446 -371c-254,13 -468,100 -523,195 -34,4 -66,20 -66,46l0 246c0,5 4,9 9,9 5,0 9,-4 9,-9l0 -91c27,14 53,17 66,17 38,0 76,-16 76,-47l0 -13c27,-240 195,-320 543,-348 21,-2 41,-1 61,-2 -34,-3 -70,-4 -108,-4l-4 0c-21,0 -42,0 -63,1z"/>
  <path class="fil1" d="M710 134c13,-13 40,-27 78,-39 90,-35 227,-63 380,-76 32,-3 63,-4 94,-6 -57,0 -119,2 -183,6 -273,17 -491,71 -488,120 1,19 32,33 84,44 -1,-16 12,-33 35,-49z"/>
  <path class="fil1 str0" d="M65 426c-17,0 -35,-1 -50,-6l0 -13c12,4 28,8 50,8 26,0 46,-9 61,-26l0 -39c-8,-12 -24,-14 -38,-16l-32 -6c-18,-3 -47,-6 -47,-30l0 -31c0,-28 39,-43 73,-43 16,0 35,1 50,6l0 13c-12,-4 -29,-7 -50,-7 -26,0 -47,8 -61,25l0 39c7,12 24,15 37,17l33 5c17,3 46,6 46,30l0 32c0,27 -38,42 -72,42z"/>
 </g>
</svg>
