<?xml version="1.0" encoding="UTF-8"?>
<!DOCTYPE svg PUBLIC "-//W3C//DTD SVG 1.1//EN" "http://www.w3.org/Graphics/SVG/1.1/DTD/svg11.dtd">
<!-- Creator: CorelDRAW X7 -->
<svg xmlns="http://www.w3.org/2000/svg" xml:space="preserve" width="1.265in" height="0.52in" version="1.1" style="shape-rendering:geometricPrecision; text-rendering:geometricPrecision; image-rendering:optimizeQuality; fill-rule:evenodd; clip-rule:evenodd"
viewBox="0 0 1265 520"
 xmlns:xlink="http://www.w3.org/1999/xlink">
 <defs>
  <style type="text/css">
   <![CDATA[
    .str0 {stroke:#B5277A;stroke-width:6.24803}
    .fil1 {fill:#B5277A}
    .fil0 {fill:#5C6C75}
   ]]>
  </style>
 </defs>
 <g id="Layer_x0020_1">
  <metadata id="CorelCorpID_0Corel-Layer"/>
  <path class="fil0" d="M655 455c-9,27 -45,28 -55,2l-46 -127 -47 127c-9,26 -46,25 -54,-2l-63 -200c-12,-37 43,-54 55,-18l38 121 44 -120c3,-11 12,-21 27,-21 14,0 23,10 27,21l44 120 38 -121c12,-36 66,-19 55,18l-63 200z"/>
  <path class="fil0" d="M957 459l0 -166c0,-58 -75,-76 -116,-76 -23,0 -64,4 -94,17l0 61c30,-9 64,-18 94,-18 26,0 44,8 56,20l0 7 -76 18c-35,9 -96,16 -96,64l0 23c0,53 78,67 127,67 35,0 72,-8 105,-17zm-60 -48c-16,3 -33,5 -45,5 -37,0 -57,-3 -67,-12l0 -12c15,-5 32,-8 49,-11l63 -15 0 45z"/>
  <path class="fil0" d="M1009 472l0 -328c0,-17 14,-30 30,-30 17,0 31,13 31,30l0 328 -61 0z"/>
  <path class="fil0" d="M1131 472l0 -328c0,-17 13,-30 30,-30 16,0 30,13 30,30l0 328 -60 0z"/>
  <path class="fil1" d="M307 380c-15,17 -33,25 -59,25 -29,0 -53,-9 -67,-25l0 -135c15,-17 35,-25 63,-25 28,0 48,8 63,25l0 135zm445 -371c-253,12 -467,99 -523,195 -34,4 -65,19 -65,46l0 246c0,5 4,8 8,8 5,0 9,-3 9,-8l0 -92c27,15 53,18 67,18 38,0 76,-16 76,-47l0 -13c26,-241 195,-320 543,-348 21,-2 41,-2 61,-2 -36,-3 -73,-4 -111,-4 -21,0 -43,0 -65,1z"/>
  <path class="fil1" d="M710 129c13,-14 40,-27 78,-39 90,-35 226,-63 380,-76 32,-3 63,-5 93,-6 -56,0 -118,1 -183,5 -272,18 -491,72 -488,121 1,18 32,33 85,44 -1,-16 12,-33 35,-49z"/>
  <path class="fil1 str0" d="M64 421c-16,0 -35,-1 -50,-6l0 -13c13,4 29,7 50,7 27,0 47,-9 62,-25l0 -39c-8,-13 -25,-14 -38,-16l-33 -6c-17,-3 -46,-6 -46,-30l0 -32c0,-27 38,-42 73,-42 16,0 35,1 49,6l0 12c-12,-3 -28,-6 -49,-6 -27,0 -47,8 -62,25l0 39c8,12 25,14 38,16l33 6c17,3 46,6 46,29l0 33c0,27 -39,42 -73,42z"/>
 </g>
</svg>
